<?xml version="1.0" encoding="utf-8"?>
<!-- Generator: Adobe Illustrator 22.0.0, SVG Export Plug-In . SVG Version: 6.00 Build 0)  -->
<svg version="1.1" xmlns="http://www.w3.org/2000/svg" xmlns:xlink="http://www.w3.org/1999/xlink" x="0px" y="0px"
	 viewBox="0 0 512 512" style="enable-background:new 0 0 512 512;" xml:space="preserve">
<style type="text/css">
	.st0{fill:#E1902B;}
	.st1{fill:#3D2A3D;}
	.st2{fill:#E7AD84;}
	.st3{fill:#2961A5;}
	.st4{fill:#FFD66C;}
	.st5{fill:#A18FA1;}
	.st6{fill:#DB4646;}
	.st7{fill:#78BEDE;}
	.st8{fill:#43B06D;}
	.st9{fill:#9EC853;}
	.st10{fill:#217D44;}
	.st11{fill:#DBDBDB;}
	.st12{fill:#FFFFFF;}
	.st13{fill:#C41E1E;}
	.st14{fill:#B9BDC2;}
	.st15{fill:#856685;}
	.st16{fill:#E8E8E8;}
	.st17{fill:#BDBDBD;}
	.st18{fill:#839797;}
	.st19{fill:#D9D9D9;}
	.st20{fill:#F0F0F0;}
	.st21{fill:#BFBFBF;}
	.st22{fill:#706470;}
	.st23{fill:#4B1E4C;}
	.st24{fill:#614F61;}
	.st25{fill:#A37352;}
	.st26{fill:#7A6C7A;}
	.st27{fill:#919191;}
	.st28{fill:#6E6E6E;}
	.st29{fill:#B8B8B8;}
	.st30{fill:#FF826E;}
	.st31{fill:#7D5737;}
	.st32{fill:#2E1B17;}
	.st33{fill:#483324;}
	.st34{fill:#9E9E9E;}
	.st35{fill:#7D6F7D;}
	.st36{fill:#6B4A6B;}
	.st37{fill:#4A80C2;}
	.st38{fill:#B34B0F;}
	.st39{fill:#FFC682;}
	.st40{clip-path:url(#SVGID_2_);fill:#DBDBDB;}
	.st41{fill:#FFDBC5;}
	.st42{fill:#E3E3E3;}
	.st43{clip-path:url(#SVGID_4_);}
	.st44{clip-path:url(#SVGID_6_);fill:#DBDBDB;}
	.st45{clip-path:url(#SVGID_8_);}
	.st46{fill:#E8B494;}
	.st47{fill:#F2D7C4;}
	.st48{fill:#5D5660;}
	.st49{fill:#3B2D3F;}
	.st50{fill:#756275;}
	.st51{fill:#E1622B;}
	.st52{fill:#F0E9E9;}
	.st53{fill:#4D917B;}
	.st54{fill:#C4C4C4;}
	.st55{fill:#14855A;}
	.st56{fill:#C21B1B;}
</style>
<g id="Layer_9">
	<path class="st1" d="M0,256C0,114.6,114.6,0,256,0c141.4,0,256,114.6,256,256S397.4,512,256,512C114.6,512,0,397.4,0,256z"/>
</g>
<g id="Layer_7">
	<g>
		<path class="st12" d="M379,373.5c0,20.2-16.3,36.5-36.5,36.5h-177c-20.2,0-36.5-16.3-36.5-36.5v-107c0-20.2,16.3-36.5,36.5-36.5
			h177c20.2,0,36.5,16.3,36.5,36.5V373.5z"/>
		<path class="st12" d="M264.6,133.8c-5.6-5.5-14.7-5.5-20.3,0l-120.8,119c-5.6,5.5-2.7,10.2,6.4,10.2h248.9c9.1,0,12-4.7,6.4-10.2
			L264.6,133.8z"/>
		<g>
			<path class="st1" d="M309,356.5c0,14.6-11.8,26.5-26.5,26.5h-55.1c-14.6,0-26.5-11.8-26.5-26.5v-0.1c0-14.6,11.8-26.5,26.5-26.5
				h55.1C297.2,330,309,341.8,309,356.5L309,356.5z"/>
			<ellipse class="st1" cx="254.5" cy="336.5" rx="26.9" ry="33.6"/>
			<g>
				<path class="st1" d="M302.8,283.4c0,11.5-9.3,20.8-20.8,20.8c-11.5,0-20.8-9.3-20.8-20.8c0-11.5,9.3-20.8,20.8-20.8
					C293.5,262.6,302.8,271.9,302.8,283.4z"/>
				<path class="st1" d="M247.8,283.4c0,11.5-9.3,20.8-20.8,20.8c-11.5,0-20.8-9.3-20.8-20.8c0-11.5,9.3-20.8,20.8-20.8
					C238.5,262.6,247.8,271.9,247.8,283.4z"/>
			</g>
			<g>
				<path class="st1" d="M208,319.1c0,9.6-7.8,17.4-17.4,17.4c-9.6,0-17.4-7.8-17.4-17.4c0-9.6,7.8-17.4,17.4-17.4
					C200.2,301.7,208,309.5,208,319.1z"/>
				<path class="st1" d="M335.8,319.1c0,9.6-7.8,17.4-17.4,17.4c-9.6,0-17.4-7.8-17.4-17.4c0-9.6,7.8-17.4,17.4-17.4
					C328,301.7,335.8,309.5,335.8,319.1z"/>
			</g>
		</g>
		<g>
			<path class="st6" d="M407.7,234.7c-13.1-14.3-27.7-27.4-41.5-41c-21.8-21.4-43.6-42.9-65.4-64.3c-4.9-4.8-9.8-9.7-14.7-14.5
				c-14.6-14.4-37-16.9-54.6-6.7c-4.1,2.4-7.5,5.7-10.9,9c-18,17.7-36,35.4-53.9,53.1c-14.7,14.5-29.5,29-44.2,43.5
				c-7,6.9-14.5,13.6-21.1,20.9c-11,12-11.9,30.5,0,42.4c11.2,11.2,31.4,12.1,42.4,0c13.1-14.3,27.7-27.4,41.5-41
				c21.8-21.4,43.6-42.9,65.4-64.3c3.7-3.7,7.4-7.3,11.1-11c1-1,2-2,3-3c0.2-0.2,0.4-0.4,0.6-0.6c-1.6,1.6-6,3.7-1.2,1.5
				c-2.4,1-4.8,2-7.2,3c1.4-0.5,2.6-0.8,4-1c-2.7,0.4-5.3,0.7-8,1.1c0.9-0.1,1.8-0.1,2.8,0c-2.7-0.4-5.3-0.7-8-1.1
				c1.4,0.2,2.7,0.5,4,1c-2.4-1-4.8-2-7.2-3c3.3,1.5,3.4,3-1.3-1.6c0.1,0.1,0.3,0.3,0.4,0.4c0.7,0.7,1.4,1.4,2.1,2.1
				c2.8,2.7,5.5,5.4,8.3,8.1c9.4,9.3,18.9,18.6,28.3,27.9c21.9,21.6,43.8,43.1,65.7,64.7c5.7,5.6,11.6,11,17,16.8
				c11,12.1,31.2,11.2,42.4,0C419.6,265.2,418.7,246.8,407.7,234.7L407.7,234.7z"/>
		</g>
	</g>
</g>
</svg>
